<svg width="24" height="24" viewBox="0 0 24 24" fill="#12F7D6" xmlns="http://www.w3.org/2000/svg">
  <path d="M20.447 20.452H16.893V14.797C16.893 13.352 16.867 11.508 14.978 11.508C13.063 11.508 12.787 13.078 12.787 14.691V20.452H9.233V9H12.623V10.569H12.667C13.138 9.681 14.218 8.749 15.887 8.749C19.403 8.749 20.448 10.938 20.448 14.092L20.447 20.452ZM5.337 7.433C4.194 7.433 3.268 6.502 3.268 5.356C3.268 4.208 4.194 3.278 5.337 3.278C6.478 3.278 7.405 4.208 7.405 5.356C7.405 6.502 6.478 7.433 5.337 7.433ZM7.119 20.452H3.552V9H7.119V20.452ZM22.225 0H1.771C0.791 0 0 0.771 0 1.729V22.271C0 23.23 0.791 24 1.771 24H22.225C23.2 24 24 23.23 24 22.271V1.729C24 0.771 23.2 0 22.225 0Z"/>
</svg>
